<?xml version="1.0" encoding="UTF-8" standalone="no"?><!DOCTYPE svg PUBLIC "-//W3C//DTD SVG 1.1//EN" "http://www.w3.org/Graphics/SVG/1.1/DTD/svg11.dtd"><svg width="100%" height="100%" viewBox="0 0 1736 302" version="1.1" xmlns="http://www.w3.org/2000/svg" xmlns:xlink="http://www.w3.org/1999/xlink" xml:space="preserve" xmlns:serif="http://www.serif.com/" style="fill-rule:evenodd;clip-rule:evenodd;stroke-linejoin:round;stroke-miterlimit:2;"><g><g transform="matrix(4.16667,0,0,4.16667,51.1248,-8.925)"><g transform="matrix(42,0,0,42,0,34.86)"><path d="M0.019,-0l0.247,-0.754l0.193,0l0.09,0.403l0.225,-0.403l0.195,0l-0.005,0.754l-0.196,-0l0.014,-0.434l-0.002,0l-0.25,0.434l-0.078,-0l-0.104,-0.434l-0.002,0l-0.132,0.434l-0.195,-0Z" style="fill:#0056b3;fill-rule:nonzero;"/></g><g transform="matrix(42,0,0,42,40.446,34.86)"><path d="M0.586,-0.588l-0.233,0l-0.02,0.126l0.221,-0l-0.026,0.166l-0.221,-0l-0.021,0.13l0.233,-0l-0.026,0.166l-0.429,-0l0.119,-0.754l0.429,-0l-0.026,0.166Z" style="fill:#0056b3;fill-rule:nonzero;"/></g><g transform="matrix(42,0,0,42,62.706,34.86)"><path d="M0.494,-0.421l0.389,0c-0.012,0.065 -0.026,0.121 -0.043,0.166c-0.017,0.045 -0.045,0.089 -0.082,0.132c-0.086,0.099 -0.197,0.148 -0.334,0.148c-0.119,0 -0.21,-0.037 -0.272,-0.111c-0.063,-0.073 -0.086,-0.169 -0.067,-0.287c0.019,-0.122 0.073,-0.22 0.16,-0.294c0.086,-0.075 0.191,-0.112 0.313,-0.112c0.079,0 0.144,0.018 0.197,0.053c0.052,0.035 0.089,0.088 0.11,0.158l-0.198,0.078c-0.008,-0.037 -0.024,-0.067 -0.049,-0.088c-0.025,-0.021 -0.057,-0.032 -0.095,-0.032c-0.041,0 -0.079,0.012 -0.113,0.036c-0.035,0.024 -0.062,0.054 -0.082,0.089c-0.02,0.035 -0.033,0.073 -0.039,0.113c-0.007,0.04 -0.005,0.078 0.004,0.113c0.009,0.035 0.028,0.065 0.055,0.088c0.027,0.023 0.062,0.035 0.103,0.035c0.044,0 0.082,-0.011 0.114,-0.034c0.032,-0.023 0.053,-0.055 0.064,-0.097l-0.16,0l0.025,-0.154Z" style="fill:#0056b3;fill-rule:nonzero;"/></g><g transform="matrix(42,0,0,42,97.23,34.86)"><path d="M0.547,-0.131l-0.27,0l-0.073,0.131l-0.208,-0l0.409,-0.754l0.214,0l0.165,0.754l-0.209,-0l-0.028,-0.131Zm-0.029,-0.15l-0.042,-0.24l-0.002,0l-0.119,0.24l0.163,0Z" style="fill:#0056b3;fill-rule:nonzero;"/></g><g transform="matrix(42,0,0,42,129.192,34.86)"><path d="M0.064,-0l0.119,-0.754l0.196,0l0.286,0.461l0.002,0l0.073,-0.461l0.196,0l-0.119,0.754l-0.196,-0l-0.286,-0.462l-0.002,0l-0.073,0.462l-0.196,-0Z" style="fill:#0056b3;fill-rule:nonzero;"/></g><g transform="matrix(42,0,0,42,165.354,34.86)"><path d="M0.367,-0.166l0.316,0l-0.026,0.166l-0.646,-0l0.45,-0.588l-0.296,0l0.026,-0.166l0.624,0l-0.448,0.588Z" style="fill:#0c1a3c;fill-rule:nonzero;"/></g><g transform="matrix(42,0,0,42,194.628,34.86)"><path d="M0.308,-0.754l0.054,0.487l0.002,0l0.235,-0.487l0.156,0l0.071,0.487l0.002,0l0.219,-0.487l0.204,0l-0.36,0.754l-0.2,-0l-0.063,-0.437l-0.002,0l-0.217,0.437l-0.199,-0l-0.106,-0.754l0.204,0Z" style="fill:#0c1a3c;fill-rule:nonzero;"/></g><g transform="matrix(42,0,0,42,241.122,34.86)"><path d="M0.379,-0.754l-0.119,0.754l-0.196,-0l0.119,-0.754l0.196,0Z" style="fill:#0c1a3c;fill-rule:nonzero;"/></g><g transform="matrix(42,0,0,42,254.31,34.86)"><path d="M0.669,-0.712l-0.102,0.152c-0.035,-0.033 -0.075,-0.05 -0.122,-0.05c-0.021,0 -0.041,0.006 -0.061,0.017c-0.019,0.011 -0.03,0.027 -0.033,0.046c-0.002,0.011 -0.001,0.02 0.003,0.028c0.004,0.008 0.011,0.015 0.02,0.021c0.01,0.006 0.018,0.01 0.025,0.013c0.007,0.003 0.016,0.006 0.027,0.01l0.048,0.015c0.056,0.017 0.098,0.042 0.125,0.073c0.028,0.032 0.037,0.076 0.028,0.133c-0.014,0.091 -0.051,0.159 -0.11,0.203c-0.063,0.047 -0.138,0.071 -0.225,0.071c-0.095,-0 -0.179,-0.029 -0.252,-0.086l0.109,-0.158c0.051,0.052 0.105,0.078 0.162,0.078c0.026,-0 0.049,-0.007 0.07,-0.02c0.021,-0.013 0.033,-0.031 0.037,-0.056c0.002,-0.01 0.001,-0.019 -0.004,-0.028c-0.004,-0.009 -0.009,-0.016 -0.015,-0.021c-0.006,-0.005 -0.015,-0.011 -0.026,-0.016c-0.011,-0.005 -0.02,-0.008 -0.027,-0.011c-0.007,-0.002 -0.016,-0.005 -0.027,-0.008c-0.003,-0.001 -0.005,-0.001 -0.006,-0.002c-0.015,-0.005 -0.027,-0.009 -0.038,-0.012c-0.01,-0.003 -0.021,-0.007 -0.034,-0.012c-0.012,-0.005 -0.022,-0.009 -0.03,-0.014c-0.008,-0.005 -0.016,-0.01 -0.025,-0.017c-0.009,-0.007 -0.016,-0.014 -0.021,-0.021c-0.005,-0.007 -0.01,-0.015 -0.015,-0.025c-0.004,-0.009 -0.007,-0.02 -0.009,-0.031c-0.002,-0.011 -0.003,-0.023 -0.003,-0.037c0.001,-0.013 0.002,-0.028 0.005,-0.044c0.012,-0.076 0.046,-0.137 0.101,-0.184c0.056,-0.046 0.122,-0.069 0.199,-0.069c0.038,-0 0.077,0.006 0.118,0.017c0.041,0.011 0.077,0.026 0.108,0.045Z" style="fill:#0c1a3c;fill-rule:nonzero;"/></g><g transform="matrix(42,0,0,42,279.762,34.86)"><path d="M0.566,-0.779c0.054,0 0.105,0.01 0.152,0.029c0.048,0.019 0.089,0.046 0.121,0.079c0.033,0.033 0.058,0.075 0.073,0.124c0.015,0.049 0.019,0.101 0.01,0.156c-0.013,0.08 -0.042,0.152 -0.088,0.216c-0.045,0.063 -0.103,0.113 -0.172,0.148c-0.069,0.035 -0.143,0.052 -0.223,0.052c-0.08,0 -0.149,-0.017 -0.207,-0.052c-0.057,-0.035 -0.099,-0.085 -0.125,-0.149c-0.025,-0.063 -0.032,-0.135 -0.019,-0.215c0.011,-0.074 0.041,-0.141 0.09,-0.201c0.049,-0.06 0.108,-0.106 0.177,-0.138c0.069,-0.033 0.139,-0.049 0.211,-0.049Zm0.11,0.25c-0.035,-0.04 -0.082,-0.06 -0.14,-0.06c-0.057,0 -0.11,0.02 -0.159,0.06c-0.049,0.04 -0.077,0.086 -0.085,0.139c-0.01,0.064 0.002,0.118 0.037,0.161c0.034,0.043 0.081,0.064 0.14,0.064c0.059,0 0.113,-0.021 0.162,-0.064c0.048,-0.043 0.077,-0.097 0.087,-0.161c0.008,-0.053 -0.006,-0.099 -0.042,-0.139Z" style="fill:#0c1a3c;fill-rule:nonzero;"/></g><g transform="matrix(42,0,0,42,316.596,34.86)"><path d="M0.333,-0.463l0.283,0l0.046,-0.291l0.196,0l-0.119,0.754l-0.196,-0l0.049,-0.309l-0.283,0l-0.049,0.309l-0.196,-0l0.119,-0.754l0.196,0l-0.046,0.291Z" style="fill:#0c1a3c;fill-rule:nonzero;"/></g><g transform="matrix(42,0,0,42,349.902,34.86)"><path d="M0.064,-0l0.119,-0.754l0.196,0l0.286,0.461l0.002,0l0.073,-0.461l0.196,0l-0.119,0.754l-0.196,-0l-0.286,-0.462l-0.002,0l-0.073,0.462l-0.196,-0Z" style="fill:#0c1a3c;fill-rule:nonzero;"/></g></g><rect x="0" y="184.696" width="1735.37" height="116.667" style="fill:#0056b3;"/><path d="M36,212.629l21.99,-0l0,7.059l-13.876,0l0,19.232l12.497,-0l-0,7.059l-12.497,0l0,27.833l-8.114,-0l-0,-61.183Z" style="fill:#fff;fill-rule:nonzero;"/><path d="M86.066,213.035c1.731,-0.812 3.679,-1.218 5.842,-1.218c2.164,0 4.112,0.406 5.843,1.218c1.731,0.811 3.137,1.812 4.219,3.002c1.082,1.19 2.015,2.772 2.8,4.747c0.784,1.974 1.366,3.773 1.744,5.396c0.379,1.623 0.677,3.651 0.893,6.086c0.216,2.434 0.338,4.327 0.365,5.68c0.027,1.352 0.041,3.11 0.041,5.274c-0,2.164 -0.014,3.922 -0.041,5.275c-0.027,1.352 -0.149,3.245 -0.365,5.68c-0.216,2.434 -0.514,4.463 -0.893,6.086c-0.378,1.623 -0.96,3.421 -1.744,5.396c-0.785,1.974 -1.718,3.557 -2.8,4.747c-1.082,1.19 -2.488,2.191 -4.219,3.002c-1.731,0.811 -3.679,1.217 -5.843,1.217c-2.163,0 -4.111,-0.406 -5.842,-1.217c-1.731,-0.811 -3.138,-1.812 -4.219,-3.002c-1.082,-1.19 -2.016,-2.773 -2.8,-4.747c-0.784,-1.975 -1.366,-3.773 -1.745,-5.396c-0.378,-1.623 -0.676,-3.652 -0.892,-6.086c-0.217,-2.435 -0.338,-4.328 -0.365,-5.68c-0.027,-1.353 -0.041,-3.111 -0.041,-5.275c0,-2.164 0.014,-3.922 0.041,-5.274c0.027,-1.353 0.148,-3.246 0.365,-5.68c0.216,-2.435 0.514,-4.463 0.892,-6.086c0.379,-1.623 0.961,-3.422 1.745,-5.396c0.784,-1.975 1.718,-3.557 2.8,-4.747c1.081,-1.19 2.488,-2.191 4.219,-3.002Zm11.685,12.577c-0.974,-4.111 -2.921,-6.167 -5.843,-6.167c-2.921,-0 -4.868,2.042 -5.842,6.126c-0.974,4.085 -1.461,9.968 -1.461,17.649c0,7.682 0.487,13.565 1.461,17.649c0.974,4.084 2.921,6.127 5.842,6.127c2.922,-0 4.869,-2.043 5.843,-6.127c0.974,-4.084 1.46,-9.967 1.46,-17.649c0,-7.681 -0.486,-13.551 -1.46,-17.608Z" style="fill:#fff;fill-rule:nonzero;"/><path d="M129.965,273.812l0,-61.183l9.738,-0c1.568,-0 2.867,0.04 3.895,0.122c1.027,0.081 2.339,0.405 3.935,0.973c1.596,0.568 2.854,1.366 3.773,2.394c0.92,1.028 1.745,2.583 2.475,4.666c0.73,2.083 1.096,4.584 1.096,7.506c-0,2.218 -0.217,4.354 -0.65,6.41c-0.432,2.056 -1.311,4.03 -2.637,5.924c-1.325,1.893 -3.043,3.029 -5.152,3.408l11.279,29.78l-8.439,-0l-11.036,-29.943l-0.162,0l-0,29.943l-8.115,-0Zm8.115,-34.081c5.463,0.379 8.195,-2.84 8.195,-9.656c0,-3.462 -0.446,-6.1 -1.339,-7.912c-0.892,-1.812 -2.745,-2.691 -5.558,-2.637l-1.298,0l-0,20.205Z" style="fill:#fff;fill-rule:nonzero;"/><path d="M214.356,226.829l0.486,3.976l1.218,20.53l-0,22.477l-8.115,-0l0,-61.183l7.79,-0l14.281,46.496l0.163,-0.163l-1.948,-24.505l0,-21.828l8.115,-0l-0,61.183l-7.547,-0l-14.281,-47.145l-0.162,0.162Z" style="fill:#fff;fill-rule:nonzero;"/><path d="M268.56,213.035c1.731,-0.812 3.679,-1.218 5.843,-1.218c2.163,0 4.111,0.406 5.842,1.218c1.731,0.811 3.138,1.812 4.219,3.002c1.082,1.19 2.016,2.772 2.8,4.747c0.784,1.974 1.366,3.773 1.745,5.396c0.378,1.623 0.676,3.651 0.892,6.086c0.217,2.434 0.338,4.327 0.365,5.68c0.027,1.352 0.041,3.11 0.041,5.274c-0,2.164 -0.014,3.922 -0.041,5.275c-0.027,1.352 -0.148,3.245 -0.365,5.68c-0.216,2.434 -0.514,4.463 -0.892,6.086c-0.379,1.623 -0.961,3.421 -1.745,5.396c-0.784,1.974 -1.718,3.557 -2.8,4.747c-1.081,1.19 -2.488,2.191 -4.219,3.002c-1.731,0.811 -3.679,1.217 -5.842,1.217c-2.164,0 -4.112,-0.406 -5.843,-1.217c-1.731,-0.811 -3.137,-1.812 -4.219,-3.002c-1.082,-1.19 -2.015,-2.773 -2.8,-4.747c-0.784,-1.975 -1.366,-3.773 -1.744,-5.396c-0.379,-1.623 -0.677,-3.652 -0.893,-6.086c-0.216,-2.435 -0.338,-4.328 -0.365,-5.68c-0.027,-1.353 -0.041,-3.111 -0.041,-5.275c0,-2.164 0.014,-3.922 0.041,-5.274c0.027,-1.353 0.149,-3.246 0.365,-5.68c0.216,-2.435 0.514,-4.463 0.893,-6.086c0.378,-1.623 0.96,-3.422 1.744,-5.396c0.785,-1.975 1.718,-3.557 2.8,-4.747c1.082,-1.19 2.488,-2.191 4.219,-3.002Zm11.685,12.577c-0.974,-4.111 -2.921,-6.167 -5.842,-6.167c-2.922,-0 -4.869,2.042 -5.843,6.126c-0.974,4.085 -1.46,9.968 -1.46,17.649c-0,7.682 0.486,13.565 1.46,17.649c0.974,4.084 2.921,6.127 5.843,6.127c2.921,-0 4.868,-2.043 5.842,-6.127c0.974,-4.084 1.461,-9.967 1.461,-17.649c-0,-7.681 -0.487,-13.551 -1.461,-17.608Z" style="fill:#fff;fill-rule:nonzero;"/><path d="M312.459,273.812l0,-61.183l9.738,-0c1.568,-0 2.867,0.04 3.895,0.122c1.027,0.081 2.339,0.405 3.935,0.973c1.596,0.568 2.854,1.366 3.773,2.394c0.92,1.028 1.745,2.583 2.475,4.666c0.731,2.083 1.096,4.584 1.096,7.506c-0,2.218 -0.217,4.354 -0.649,6.41c-0.433,2.056 -1.312,4.03 -2.638,5.924c-1.325,1.893 -3.043,3.029 -5.152,3.408l11.279,29.78l-8.439,-0l-11.036,-29.943l-0.162,0l-0,29.943l-8.115,-0Zm8.115,-34.081c5.463,0.379 8.195,-2.84 8.195,-9.656c0,-3.462 -0.446,-6.1 -1.339,-7.912c-0.892,-1.812 -2.745,-2.691 -5.558,-2.637l-1.298,0l-0,20.205Z" style="fill:#fff;fill-rule:nonzero;"/><path d="M360.01,212.629l21.99,-0l0,7.059l-13.876,0l0,19.232l12.497,-0l-0,7.059l-12.497,0l0,27.833l-8.114,-0l0,-61.183Z" style="fill:#fff;fill-rule:nonzero;"/><path d="M410.076,213.035c1.731,-0.812 3.679,-1.218 5.843,-1.218c2.163,0 4.111,0.406 5.842,1.218c1.731,0.811 3.138,1.812 4.22,3.002c1.081,1.19 2.015,2.772 2.799,4.747c0.784,1.974 1.366,3.773 1.745,5.396c0.378,1.623 0.676,3.651 0.892,6.086c0.217,2.434 0.338,4.327 0.365,5.68c0.027,1.352 0.041,3.11 0.041,5.274c-0,2.164 -0.014,3.922 -0.041,5.275c-0.027,1.352 -0.148,3.245 -0.365,5.68c-0.216,2.434 -0.514,4.463 -0.892,6.086c-0.379,1.623 -0.961,3.421 -1.745,5.396c-0.784,1.974 -1.718,3.557 -2.799,4.747c-1.082,1.19 -2.489,2.191 -4.22,3.002c-1.731,0.811 -3.679,1.217 -5.842,1.217c-2.164,0 -4.112,-0.406 -5.843,-1.217c-1.731,-0.811 -3.137,-1.812 -4.219,-3.002c-1.082,-1.19 -2.015,-2.773 -2.8,-4.747c-0.784,-1.975 -1.366,-3.773 -1.744,-5.396c-0.379,-1.623 -0.677,-3.652 -0.893,-6.086c-0.216,-2.435 -0.338,-4.328 -0.365,-5.68c-0.027,-1.353 -0.041,-3.111 -0.041,-5.275c0,-2.164 0.014,-3.922 0.041,-5.274c0.027,-1.353 0.149,-3.246 0.365,-5.68c0.216,-2.435 0.514,-4.463 0.893,-6.086c0.378,-1.623 0.96,-3.422 1.744,-5.396c0.785,-1.975 1.718,-3.557 2.8,-4.747c1.082,-1.19 2.488,-2.191 4.219,-3.002Zm11.685,12.577c-0.974,-4.111 -2.921,-6.167 -5.842,-6.167c-2.922,-0 -4.869,2.042 -5.843,6.126c-0.974,4.085 -1.46,9.968 -1.46,17.649c-0,7.682 0.486,13.565 1.46,17.649c0.974,4.084 2.921,6.127 5.843,6.127c2.921,-0 4.868,-2.043 5.842,-6.127c0.974,-4.084 1.461,-9.967 1.461,-17.649c-0,-7.681 -0.487,-13.551 -1.461,-17.608Z" style="fill:#fff;fill-rule:nonzero;"/><path d="M453.975,212.629l8.115,-0l-0,54.123l13.632,0l0,7.06l-21.747,-0l0,-61.183Z" style="fill:#fff;fill-rule:nonzero;"/><path d="M494.629,212.629l8.277,-0l-0,29.374l11.441,-29.374l8.358,-0l-12.01,29.618l12.984,31.565l-9.332,-0l-11.441,-30.997l-0,30.997l-8.277,-0l-0,-61.183Z" style="fill:#fff;fill-rule:nonzero;"/><path d="M545.506,230.967l-0.973,-18.338l6.978,-0l-0.974,18.338l-5.031,0Z" style="fill:#fff;fill-rule:nonzero;"/><path d="M595.816,213.846l-0.081,8.196c-2.38,-1.732 -4.679,-2.597 -6.897,-2.597c-2.164,-0 -3.909,0.771 -5.234,2.313c-1.326,1.541 -1.988,3.394 -1.988,5.558c-0,2.488 0.757,4.706 2.272,6.654l6.167,6.735c3.137,3.191 5.369,6.018 6.694,8.479c1.326,2.462 1.988,5.613 1.988,9.454c0,4.49 -1.298,8.276 -3.895,11.36c-2.596,3.083 -6.086,4.625 -10.467,4.625c-3.517,0 -6.492,-0.974 -8.926,-2.921l-0,-8.196c2.867,2.11 5.545,3.165 8.033,3.165c2.38,0 4.165,-0.811 5.356,-2.434c1.19,-1.623 1.785,-3.652 1.785,-6.086c-0,-2.218 -0.582,-4.301 -1.745,-6.248c-1.163,-1.948 -2.596,-3.706 -4.3,-5.275c-1.705,-1.568 -3.395,-3.191 -5.072,-4.868c-1.677,-1.677 -3.097,-3.733 -4.26,-6.167c-1.163,-2.435 -1.745,-5.139 -1.745,-8.115c0,-4.544 1.19,-8.29 3.571,-11.238c2.38,-2.949 5.761,-4.423 10.143,-4.423c3.462,0 6.329,0.677 8.601,2.029Z" style="fill:#fff;fill-rule:nonzero;"/><path d="M673.552,213.603l0,7.384c-2.055,-1.028 -3.786,-1.542 -5.193,-1.542c-1.785,-0 -3.367,0.392 -4.747,1.177c-1.379,0.784 -2.475,1.947 -3.286,3.489c-0.812,1.541 -1.461,3.043 -1.948,4.503c-0.486,1.461 -0.825,3.273 -1.014,5.437c-0.189,2.164 -0.311,3.841 -0.365,5.031c-0.054,1.19 -0.081,2.705 -0.081,4.544c-0,15.58 3.922,23.37 11.766,23.37c1.677,-0 3.3,-0.406 4.868,-1.218l0,7.141c-1.785,1.136 -3.949,1.704 -6.491,1.704c-12.496,0 -18.744,-10.143 -18.744,-30.429c-0,-21.584 6.058,-32.377 18.176,-32.377c2.651,0 5.004,0.595 7.059,1.786Z" style="fill:#fff;fill-rule:nonzero;"/><path d="M702.115,213.035c1.731,-0.812 3.679,-1.218 5.843,-1.218c2.164,0 4.111,0.406 5.842,1.218c1.731,0.811 3.138,1.812 4.22,3.002c1.082,1.19 2.015,2.772 2.799,4.747c0.785,1.974 1.366,3.773 1.745,5.396c0.378,1.623 0.676,3.651 0.892,6.086c0.217,2.434 0.338,4.327 0.366,5.68c0.027,1.352 0.04,3.11 0.04,5.274c0,2.164 -0.013,3.922 -0.04,5.275c-0.028,1.352 -0.149,3.245 -0.366,5.68c-0.216,2.434 -0.514,4.463 -0.892,6.086c-0.379,1.623 -0.96,3.421 -1.745,5.396c-0.784,1.974 -1.717,3.557 -2.799,4.747c-1.082,1.19 -2.489,2.191 -4.22,3.002c-1.731,0.811 -3.678,1.217 -5.842,1.217c-2.164,0 -4.112,-0.406 -5.843,-1.217c-1.731,-0.811 -3.137,-1.812 -4.219,-3.002c-1.082,-1.19 -2.015,-2.773 -2.8,-4.747c-0.784,-1.975 -1.366,-3.773 -1.744,-5.396c-0.379,-1.623 -0.676,-3.652 -0.893,-6.086c-0.216,-2.435 -0.338,-4.328 -0.365,-5.68c-0.027,-1.353 -0.041,-3.111 -0.041,-5.275c0,-2.164 0.014,-3.922 0.041,-5.274c0.027,-1.353 0.149,-3.246 0.365,-5.68c0.217,-2.435 0.514,-4.463 0.893,-6.086c0.378,-1.623 0.96,-3.422 1.744,-5.396c0.785,-1.975 1.718,-3.557 2.8,-4.747c1.082,-1.19 2.488,-2.191 4.219,-3.002Zm11.685,12.577c-0.974,-4.111 -2.921,-6.167 -5.842,-6.167c-2.921,-0 -4.869,2.042 -5.843,6.126c-0.973,4.085 -1.46,9.968 -1.46,17.649c-0,7.682 0.487,13.565 1.46,17.649c0.974,4.084 2.922,6.127 5.843,6.127c2.921,-0 4.868,-2.043 5.842,-6.127c0.974,-4.084 1.461,-9.967 1.461,-17.649c-0,-7.681 -0.487,-13.551 -1.461,-17.608Z" style="fill:#fff;fill-rule:nonzero;"/><path d="M748.043,212.629l6.979,-0l8.682,44.142l0.162,0l0.244,-2.515l2.434,-14.687l5.275,-26.94l7.14,-0l5.68,61.183l-7.952,-0l-1.46,-22.802l-0.487,-11.36l-0.163,-8.033l-0.162,-0l-1.379,8.763l-6.33,33.432l-5.599,-0l-7.871,-42.195l-0.162,-0l-2.353,42.195l-7.709,-0l5.031,-61.183Z" style="fill:#fff;fill-rule:nonzero;"/><path d="M807.36,212.629l6.978,-0l8.683,44.142l0.162,0l0.243,-2.515l2.435,-14.687l5.274,-26.94l7.141,-0l5.68,61.183l-7.952,-0l-1.461,-22.802l-0.487,-11.36l-0.162,-8.033l-0.162,-0l-1.38,8.763l-6.329,33.432l-5.599,-0l-7.871,-42.195l-0.162,-0l-2.353,42.195l-7.709,-0l5.031,-61.183Z" style="fill:#fff;fill-rule:nonzero;"/><path d="M873.168,213.035c1.731,-0.812 3.679,-1.218 5.842,-1.218c2.164,0 4.112,0.406 5.843,1.218c1.731,0.811 3.137,1.812 4.219,3.002c1.082,1.19 2.015,2.772 2.8,4.747c0.784,1.974 1.366,3.773 1.744,5.396c0.379,1.623 0.677,3.651 0.893,6.086c0.216,2.434 0.338,4.327 0.365,5.68c0.027,1.352 0.041,3.11 0.041,5.274c-0,2.164 -0.014,3.922 -0.041,5.275c-0.027,1.352 -0.149,3.245 -0.365,5.68c-0.216,2.434 -0.514,4.463 -0.893,6.086c-0.378,1.623 -0.96,3.421 -1.744,5.396c-0.785,1.974 -1.718,3.557 -2.8,4.747c-1.082,1.19 -2.488,2.191 -4.219,3.002c-1.731,0.811 -3.679,1.217 -5.843,1.217c-2.163,0 -4.111,-0.406 -5.842,-1.217c-1.731,-0.811 -3.138,-1.812 -4.219,-3.002c-1.082,-1.19 -2.016,-2.773 -2.8,-4.747c-0.784,-1.975 -1.366,-3.773 -1.745,-5.396c-0.378,-1.623 -0.676,-3.652 -0.892,-6.086c-0.217,-2.435 -0.338,-4.328 -0.365,-5.68c-0.027,-1.353 -0.041,-3.111 -0.041,-5.275c0,-2.164 0.014,-3.922 0.041,-5.274c0.027,-1.353 0.148,-3.246 0.365,-5.68c0.216,-2.435 0.514,-4.463 0.892,-6.086c0.379,-1.623 0.961,-3.422 1.745,-5.396c0.784,-1.975 1.718,-3.557 2.8,-4.747c1.081,-1.19 2.488,-2.191 4.219,-3.002Zm11.685,12.577c-0.974,-4.111 -2.921,-6.167 -5.843,-6.167c-2.921,-0 -4.868,2.042 -5.842,6.126c-0.974,4.085 -1.461,9.968 -1.461,17.649c0,7.682 0.487,13.565 1.461,17.649c0.974,4.084 2.921,6.127 5.842,6.127c2.922,-0 4.869,-2.043 5.843,-6.127c0.974,-4.084 1.46,-9.967 1.46,-17.649c0,-7.681 -0.486,-13.551 -1.46,-17.608Z" style="fill:#fff;fill-rule:nonzero;"/><path d="M923.478,226.829l0.487,3.976l1.217,20.53l-0,22.477l-8.115,-0l0,-61.183l7.79,-0l14.282,46.496l0.162,-0.163l-1.948,-24.505l0,-21.828l8.115,-0l-0,61.183l-7.547,-0l-14.281,-47.145l-0.162,0.162Z" style="fill:#fff;fill-rule:nonzero;"/><path d="M964.375,212.629l7.952,-0l5.761,41.465l0.325,4.544l0.162,-0l2.434,-20.53l4.22,-25.479l6.329,-0l6.654,45.603l0.162,0l2.191,-19.637l3.733,-25.966l7.871,-0l-10.711,61.183l-6.492,-0l-4.625,-28.482l-1.867,-15.417l-0.081,-1.542l-0.162,-0l-1.785,16.472l-4.869,28.969l-6.654,-0l-10.548,-61.183Z" style="fill:#fff;fill-rule:nonzero;"/><path d="M1030.99,212.629l21.828,-0l0,7.059l-13.713,0l-0,19.232l12.252,-0l0,7.059l-12.252,0l-0,20.773l13.713,0l0,7.06l-21.828,-0l0,-61.183Z" style="fill:#fff;fill-rule:nonzero;"/><path d="M1081.63,212.629l6.411,-0l13.145,61.183l-8.195,-0l-2.272,-11.928l-12.172,-0l-2.272,11.928l-7.952,-0l13.307,-61.183Zm7.871,42.925l-1.623,-8.845l-3.083,-22.233l-0.162,-0l-4.869,31.078l9.737,0Z" style="fill:#fff;fill-rule:nonzero;"/><path d="M1120.33,212.629l8.115,-0l-0,54.123l13.632,0l0,7.06l-21.747,-0l0,-61.183Z" style="fill:#fff;fill-rule:nonzero;"/><path d="M1151.01,212.629l26.859,-0l-0,7.059l-9.17,0l0,54.124l-8.114,-0l-0,-54.124l-9.575,0l-0,-7.059Z" style="fill:#fff;fill-rule:nonzero;"/><path d="M1196.29,212.629l8.114,-0l0,23.856l12.253,0l-0,-23.856l8.114,-0l0,61.183l-8.114,-0l-0,-30.267l-12.253,-0l0,30.267l-8.114,-0l-0,-61.183Z" style="fill:#fff;fill-rule:nonzero;"/><path d="M1251.14,230.967l-0.973,-18.338l6.978,-0l-0.974,18.338l-5.031,0Z" style="fill:#fff;fill-rule:nonzero;"/><path d="M1301.45,213.846l-0.081,8.196c-2.38,-1.732 -4.68,-2.597 -6.898,-2.597c-2.163,-0 -3.908,0.771 -5.233,2.313c-1.326,1.541 -1.988,3.394 -1.988,5.558c-0,2.488 0.757,4.706 2.272,6.654l6.167,6.735c3.137,3.191 5.369,6.018 6.694,8.479c1.325,2.462 1.988,5.613 1.988,9.454c0,4.49 -1.298,8.276 -3.895,11.36c-2.596,3.083 -6.086,4.625 -10.467,4.625c-3.517,0 -6.492,-0.974 -8.926,-2.921l-0,-8.196c2.867,2.11 5.545,3.165 8.033,3.165c2.38,0 4.165,-0.811 5.355,-2.434c1.191,-1.623 1.786,-3.652 1.786,-6.086c-0,-2.218 -0.582,-4.301 -1.745,-6.248c-1.163,-1.948 -2.597,-3.706 -4.301,-5.275c-1.704,-1.568 -3.394,-3.191 -5.071,-4.868c-1.677,-1.677 -3.097,-3.733 -4.26,-6.167c-1.163,-2.435 -1.745,-5.139 -1.745,-8.115c0,-4.544 1.19,-8.29 3.571,-11.238c2.38,-2.949 5.761,-4.423 10.143,-4.423c3.462,0 6.329,0.677 8.601,2.029Z" style="fill:#fff;fill-rule:nonzero;"/><path d="M1364.17,212.629l6.41,-0l13.145,61.183l-8.195,-0l-2.272,-11.928l-12.172,-0l-2.272,11.928l-7.952,-0l13.308,-61.183Zm7.871,42.925l-1.623,-8.845l-3.084,-22.233l-0.162,-0l-4.869,31.078l9.738,0Z" style="fill:#fff;fill-rule:nonzero;"/><path d="M1394.6,212.629l26.859,-0l-0,7.059l-9.17,0l0,54.124l-8.114,-0l-0,-54.124l-9.575,0l-0,-7.059Z" style="fill:#fff;fill-rule:nonzero;"/><path d="M1434.61,212.629l26.859,-0l-0,7.059l-9.169,0l-0,54.124l-8.115,-0l0,-54.124l-9.575,0l0,-7.059Z" style="fill:#fff;fill-rule:nonzero;"/><path d="M1488.41,213.035c1.731,-0.812 3.678,-1.218 5.842,-1.218c2.164,0 4.112,0.406 5.843,1.218c1.731,0.811 3.137,1.812 4.219,3.002c1.082,1.19 2.015,2.772 2.8,4.747c0.784,1.974 1.366,3.773 1.744,5.396c0.379,1.623 0.677,3.651 0.893,6.086c0.216,2.434 0.338,4.327 0.365,5.68c0.027,1.352 0.041,3.11 0.041,5.274c-0,2.164 -0.014,3.922 -0.041,5.275c-0.027,1.352 -0.149,3.245 -0.365,5.68c-0.216,2.434 -0.514,4.463 -0.893,6.086c-0.378,1.623 -0.96,3.421 -1.744,5.396c-0.785,1.974 -1.718,3.557 -2.8,4.747c-1.082,1.19 -2.488,2.191 -4.219,3.002c-1.731,0.811 -3.679,1.217 -5.843,1.217c-2.164,0 -4.111,-0.406 -5.842,-1.217c-1.731,-0.811 -3.138,-1.812 -4.22,-3.002c-1.082,-1.19 -2.015,-2.773 -2.799,-4.747c-0.784,-1.975 -1.366,-3.773 -1.745,-5.396c-0.378,-1.623 -0.676,-3.652 -0.892,-6.086c-0.217,-2.435 -0.338,-4.328 -0.365,-5.68c-0.027,-1.353 -0.041,-3.111 -0.041,-5.275c-0,-2.164 0.014,-3.922 0.041,-5.274c0.027,-1.353 0.148,-3.246 0.365,-5.68c0.216,-2.435 0.514,-4.463 0.892,-6.086c0.379,-1.623 0.961,-3.422 1.745,-5.396c0.784,-1.975 1.717,-3.557 2.799,-4.747c1.082,-1.19 2.489,-2.191 4.22,-3.002Zm11.685,12.577c-0.974,-4.111 -2.921,-6.167 -5.843,-6.167c-2.921,-0 -4.868,2.042 -5.842,6.126c-0.974,4.085 -1.461,9.968 -1.461,17.649c0,7.682 0.487,13.565 1.461,17.649c0.974,4.084 2.921,6.127 5.842,6.127c2.922,-0 4.869,-2.043 5.843,-6.127c0.973,-4.084 1.46,-9.967 1.46,-17.649c0,-7.681 -0.487,-13.551 -1.46,-17.608Z" style="fill:#fff;fill-rule:nonzero;"/><path d="M1532.31,273.812l0,-61.183l9.737,-0c1.569,-0 2.868,0.04 3.895,0.122c1.028,0.081 2.34,0.405 3.936,0.973c1.596,0.568 2.853,1.366 3.773,2.394c0.92,1.028 1.745,2.583 2.475,4.666c0.73,2.083 1.095,4.584 1.095,7.506c0,2.218 -0.216,4.354 -0.649,6.41c-0.432,2.056 -1.312,4.03 -2.637,5.924c-1.325,1.893 -3.043,3.029 -5.153,3.408l11.28,29.78l-8.439,-0l-11.036,-29.943l-0.162,0l-0,29.943l-8.115,-0Zm8.115,-34.081c5.463,0.379 8.195,-2.84 8.195,-9.656c0,-3.462 -0.446,-6.1 -1.339,-7.912c-0.892,-1.812 -2.745,-2.691 -5.558,-2.637l-1.298,0l-0,20.205Z" style="fill:#fff;fill-rule:nonzero;"/><path d="M1586.27,226.829l0.487,3.976l1.217,20.53l0,22.477l-8.114,-0l-0,-61.183l7.79,-0l14.281,46.496l0.162,-0.163l-1.947,-24.505l-0,-21.828l8.114,-0l0,61.183l-7.546,-0l-14.281,-47.145l-0.163,0.162Z" style="fill:#fff;fill-rule:nonzero;"/><path d="M1631.95,212.629l21.827,-0l0,7.059l-13.713,0l0,19.232l12.253,-0l-0,7.059l-12.253,0l0,20.773l13.713,0l0,7.06l-21.827,-0l-0,-61.183Z" style="fill:#fff;fill-rule:nonzero;"/><path d="M1669.12,212.629l8.763,-0l7.466,28.319l0.162,0l1.298,-7.871l5.194,-20.448l8.682,-0l-11.36,34.811l-0,26.372l-8.115,-0l0,-26.372l-12.09,-34.811Z" style="fill:#fff;fill-rule:nonzero;"/></g></svg>